<?xml version="1.0" standalone="no"?>
<!DOCTYPE svg PUBLIC "-//W3C//DTD SVG 20010904//EN"
 "http://www.w3.org/TR/2001/REC-SVG-20010904/DTD/svg10.dtd">
<svg version="1.0" xmlns="http://www.w3.org/2000/svg"
 width="510.000000pt" height="340.000000pt" viewBox="0 0 510.000000 340.000000"
 preserveAspectRatio="xMidYMid meet">

<g transform="translate(0.000000,340.000000) scale(0.100000,-0.100000)"
fill="#000000" stroke="none">
<path d="M0 1700 l0 -1700 2550 0 2550 0 0 1700 0 1700 -2550 0 -2550 0 0
-1700z m4085 880 c-3 -5 -12 -10 -18 -10 -7 0 -6 4 3 10 19 12 23 12 15 0z
m-1518 -172 c-3 -7 -5 -2 -5 12 0 14 2 19 5 13 2 -7 2 -19 0 -25z m-170 -20
c-3 -8 -6 -5 -6 6 -1 11 2 17 5 13 3 -3 4 -12 1 -19z m-20 -20 c-3 -8 -6 -5
-6 6 -1 11 2 17 5 13 3 -3 4 -12 1 -19z m164 -11 c-10 -9 -11 -8 -5 6 3 10 9
15 12 12 3 -3 0 -11 -7 -18z m-560 -4 c13 -16 12 -17 -3 -4 -10 7 -18 15 -18
17 0 8 8 3 21 -13z m236 0 c2 -6 -1 -14 -6 -18 -7 -4 -8 0 -4 11 4 11 3 15 -5
10 -6 -3 -13 -2 -16 3 -4 5 2 8 11 7 9 -2 19 -8 20 -13z m143 9 c0 -4 -10 -13
-22 -21 -23 -14 -23 -14 -4 8 20 22 26 25 26 13z m117 -34 c-3 -7 -5 -2 -5 12
0 14 2 19 5 13 2 -7 2 -19 0 -25z m20 10 c-3 -8 -6 -5 -6 6 -1 11 2 17 5 13 3
-3 4 -12 1 -19z m-40 -10 c-3 -8 -6 -5 -6 6 -1 11 2 17 5 13 3 -3 4 -12 1 -19z
m-147 0 c0 -4 -4 -8 -9 -8 -6 0 -12 4 -15 8 -3 5 1 9 9 9 8 0 15 -4 15 -9z
m100 2 c-18 -12 -30 -13 -30 -2 0 4 10 9 22 9 18 2 20 0 8 -7z m27 -22 c-3 -7
-5 -2 -5 12 0 14 2 19 5 13 2 -7 2 -19 0 -25z m-68 10 c-58 -36 -156 -68 -144
-48 3 5 18 10 33 10 15 0 45 12 67 25 21 13 41 22 44 20 2 -3 2 -6 0 -7z m157
-25 c-4 -5 16 -13 46 -19 l53 -12 -50 -1 c-80 -1 -85 -2 -85 -10 0 -4 -6 -8
-12 -8 -7 0 -46 -3 -87 -7 -53 -5 -71 -4 -66 4 4 6 15 8 25 5 18 -6 90 18 90
30 0 3 -5 3 -12 -1 -7 -4 -8 -3 -4 4 5 9 12 9 25 1 13 -9 24 -8 47 4 32 18 41
21 30 10z m74 -3 c0 -5 -2 -10 -4 -10 -3 0 -8 5 -11 10 -3 6 -1 10 4 10 6 0
11 -4 11 -10z m-250 -10 c-8 -5 -19 -10 -25 -10 -5 0 -3 5 5 10 8 5 20 10 25
10 6 0 3 -5 -5 -10z m53 -7 c-7 -2 -19 -2 -25 0 -7 3 -2 5 12 5 14 0 19 -2 13
-5z m377 -3 c8 -5 11 -10 5 -10 -5 0 -17 5 -25 10 -8 5 -10 10 -5 10 6 0 17
-5 25 -10z m-55 -22 c14 -6 25 -15 25 -20 0 -5 -13 -2 -30 7 -45 23 -41 34 5
13z m-694 -25 c13 -16 12 -17 -3 -4 -10 7 -18 15 -18 17 0 8 8 3 21 -13z m616
11 c-3 -3 -12 -4 -19 -1 -8 3 -5 6 6 6 11 1 17 -2 13 -5z m-232 -14 c4 -6 -7
-10 -27 -9 -27 0 -30 2 -13 9 27 12 33 12 40 0z m-237 -11 c-2 -6 -8 -11 -13
-11 -6 0 -17 -5 -25 -11 -8 -6 -6 -2 4 11 20 23 40 30 34 11z m72 2 c0 -6 -4
-13 -10 -16 -20 -12 -10 -26 10 -15 11 6 20 7 20 1 0 -5 -13 -14 -29 -19 -26
-9 -29 -8 -24 5 4 11 2 14 -5 9 -8 -5 -10 -2 -6 8 3 9 11 14 17 13 7 -1 11 4
10 11 -2 6 2 12 7 12 6 0 10 -4 10 -9z m70 0 c0 -12 -35 -20 -51 -11 -11 8 -7
9 44 19 4 0 7 -3 7 -8z m510 -7 c0 -2 -9 -4 -20 -4 -11 0 -20 4 -20 9 0 5 9 7
20 4 11 -3 20 -7 20 -9z m-717 -52 c-2 -10 -13 -24 -24 -31 -19 -11 -18 -9 2
18 26 36 29 37 22 13z m119 -14 c-7 -7 -12 -18 -12 -25 0 -7 -9 -22 -20 -33
-21 -21 -35 -27 -25 -10 11 17 -10 11 -25 -8 -53 -65 -58 -77 -50 -123 8 -44
8 -44 -10 -22 -15 19 -19 20 -24 7 -7 -19 2 -37 15 -29 5 4 4 -5 -2 -19 -15
-32 -29 -24 -29 17 0 44 10 78 21 71 5 -3 6 2 3 10 -3 9 -10 14 -14 11 -4 -3
-10 2 -14 10 -3 8 -1 17 4 20 6 4 10 1 10 -5 0 -6 5 -8 10 -5 20 12 10 33 -15
31 -13 -2 -22 1 -19 6 3 5 12 7 20 4 14 -5 41 31 35 49 -1 6 3 4 10 -2 10 -10
9 -16 -3 -30 -8 -10 -13 -24 -11 -30 6 -16 23 -17 23 -2 0 7 10 21 23 33 12
12 31 33 42 47 11 13 17 20 13 15 -12 -16 -9 -26 7 -26 8 0 15 6 15 13 0 13
19 37 29 37 3 0 0 -5 -7 -12z m-77 -29 c-10 -15 -25 -10 -19 6 4 8 10 12 15 9
5 -3 7 -10 4 -15z m-80 -17 c-3 -3 -11 0 -18 7 -9 10 -8 11 6 5 10 -3 15 -9
12 -12z m-70 -22 c3 5 11 10 16 10 17 0 1 -17 -38 -40 -20 -12 -31 -15 -25 -7
7 7 9 17 5 21 -4 4 1 4 12 0 18 -7 19 -6 5 12 -14 17 -14 18 2 6 11 -9 18 -10
23 -2z m156 -43 c-10 -9 -11 -8 -5 6 3 10 9 15 12 12 3 -3 0 -11 -7 -18z
m-161 -27 c0 -5 -7 -7 -15 -4 -8 4 -15 8 -15 10 0 2 7 4 15 4 8 0 15 -4 15
-10z m-30 -55 c0 -8 -2 -15 -4 -15 -2 0 -6 7 -10 15 -3 8 -1 15 4 15 6 0 10
-7 10 -15z m-43 -1 c-3 -3 -12 -4 -19 -1 -8 3 -5 6 6 6 11 1 17 -2 13 -5z m88
-14 c3 -5 0 -21 -8 -36 l-14 -26 0 36 c0 35 10 46 22 26z m18 -81 c-2 -56 -13
-81 -13 -31 0 24 -5 32 -17 33 -15 0 -15 2 2 9 11 5 16 9 11 9 -6 1 11 31 18
31 1 0 1 -23 -1 -51z m1044 -46 c-3 -10 -5 -2 -5 17 0 19 2 27 5 18 2 -10 2
-26 0 -35z m-1070 31 c-3 -3 -12 -4 -19 -1 -8 3 -5 6 6 6 11 1 17 -2 13 -5z
m56 -9 c-3 -9 -8 -14 -10 -11 -3 3 -2 9 2 15 9 16 15 13 8 -4z m-156 -1 c-3
-3 -12 -4 -19 -1 -8 3 -5 6 6 6 11 1 17 -2 13 -5z m90 -10 c-3 -3 -12 -4 -19
-1 -8 3 -5 6 6 6 11 1 17 -2 13 -5z m-90 -10 c-3 -3 -12 -4 -19 -1 -8 3 -5 6
6 6 11 1 17 -2 13 -5z m80 -10 c-3 -3 -12 -4 -19 -1 -8 3 -5 6 6 6 11 1 17 -2
13 -5z m22 -23 c12 -8 11 -12 -4 -28 -18 -17 -18 -17 -13 4 5 17 1 23 -16 26
-19 4 -19 4 -1 5 11 1 26 -2 34 -7z m39 -31 c-1 -16 -5 -30 -9 -30 -3 0 -5
-12 -3 -27 4 -28 4 -28 -6 2 -6 19 -6 33 0 39 6 6 10 18 10 28 0 10 2 18 5 18
3 0 4 -13 3 -30z m-41 -112 c-3 -7 -5 -2 -5 12 0 14 2 19 5 13 2 -7 2 -19 0
-25z m50 -20 c-3 -8 -6 -5 -6 6 -1 11 2 17 5 13 3 -3 4 -12 1 -19z m23 -61 c0
-18 7 -42 15 -53 20 -26 19 -36 -2 -23 -10 6 -19 22 -19 35 -1 14 -9 33 -18
43 -21 23 -20 31 4 31 16 0 20 -7 20 -33z m121 -174 c13 -15 12 -15 -8 -4 -24
12 -29 21 -14 21 5 0 15 -7 22 -17z m124 -103 c3 -5 1 -10 -4 -10 -6 0 -11 5
-11 10 0 6 2 10 4 10 3 0 8 -4 11 -10z m409 -8 c3 -5 -1 -9 -9 -9 -8 0 -12 4
-9 9 3 4 7 8 9 8 2 0 6 -4 9 -8z m-329 -13 c4 -6 5 -12 2 -15 -7 -7 -37 7 -37
17 0 13 27 11 35 -2z m45 -25 c0 -2 -7 -4 -15 -4 -8 0 -15 4 -15 10 0 5 7 7
15 4 8 -4 15 -8 15 -10z m287 10 c-3 -3 -12 -4 -19 -1 -8 3 -5 6 6 6 11 1 17
-2 13 -5z m-230 -20 c-3 -3 -12 -4 -19 -1 -8 3 -5 6 6 6 11 1 17 -2 13 -5z
m66 -11 c-7 -2 -19 -2 -25 0 -7 3 -2 5 12 5 14 0 19 -2 13 -5z"/>
</g>
</svg>
